<svg id="Capa_1" enable-background="new 0 0 512 512" height="512" viewBox="0 0 512 512" width="512" xmlns="http://www.w3.org/2000/svg"><g><path d="m78.767 196.985h354.466v286.276h-354.466z" fill="#fff5f5"/><path d="m78.767 196.985h32.935v286.276h-32.935z" fill="#eee1dd"/><path d="m287.371 286.873v138.805c0 2.187 1.773 3.96 3.96 3.96h90.462c2.187 0 3.96-1.773 3.96-3.96v-138.805z" fill="#80b4fb"/><path d="m309.52 425.678v-138.805h-22.149v138.805c0 2.187 1.773 3.96 3.96 3.96h22.149c-2.187 0-3.96-1.773-3.96-3.96z" fill="#61a2f9"/><path d="m385.753 351.559h-41.464v-64.686h-15.453v64.686h-41.465v15.453h41.465v62.626h15.453v-62.626h41.464z" fill="#9dc6fb"/><path d="m287.371 351.559h22.149v15.453h-22.149z" fill="#80b4fb"/><path d="m126.402 286.873h119.432v196.388h-119.432z" fill="#aa8080"/><path d="m245.834 288.933v-30.106c0-4.022-3.291-7.312-7.312-7.312h-104.808c-4.022 0-7.312 3.291-7.312 7.312v30.106z" fill="#c3a2a2"/><g><path d="m126.402 286.873h35.436v196.388h-35.436z" fill="#8b5e5e"/><path d="m169.15 251.515h-35.436c-4.022 0-7.312 3.291-7.312 7.312v30.106h35.436v-30.106c0-4.022 3.29-7.312 7.312-7.312z" fill="#aa8080"/></g><g><path d="m219.39 377.671c-2.576 0-5.094-1.287-6.559-3.632l-2.856-4.57h-12.121c-4.267 0-7.726-3.459-7.726-7.726s3.459-7.726 7.726-7.726h16.403c2.664 0 5.14 1.372 6.552 3.631l5.126 8.201c2.262 3.619 1.161 8.385-2.457 10.647-1.274.795-2.69 1.175-4.088 1.175z" fill="#ddeafb"/></g><path d="m443.529 480.171h-375.058c-4.383 0-7.937 3.554-7.937 7.937v15.955c0 4.384 3.554 7.937 7.937 7.937h375.058c4.384 0 7.937-3.554 7.937-7.937v-15.955c0-4.384-3.554-7.937-7.937-7.937z" fill="#ccf49f"/><path d="m110.635 504.063v-15.955c0-4.384 3.553-7.937 7.937-7.937h-50.1c-4.384 0-7.937 3.553-7.937 7.937v15.955c0 4.384 3.554 7.937 7.937 7.937h50.1c-4.384 0-7.937-3.554-7.937-7.937z" fill="#b3e59f"/><path d="m349.596 29.769h77.082v36.215h-77.082z" fill="#eee1dd"/><path d="m349.596 29.769h36.157v36.215h-36.157z" fill="#ccbeb9"/><path d="m356.306 95.866 70.372 59.19v-59.19z" fill="#eee1dd"/><path d="m385.753 95.866h-29.447l29.447 24.768z" fill="#ccbeb9"/><path d="m426.678 64.352h-77.082v25.871l8.65 7.276h68.432z" fill="#ccbeb9"/><path d="m385.753 64.352h-36.157v25.871l8.65 7.276h27.507z" fill="#b9acac"/><path d="m443.24 23.892v-15.955c0-4.383-3.554-7.937-7.937-7.937h-94.332c-4.383 0-7.937 3.554-7.937 7.937v15.955c0 4.384 3.554 7.937 7.937 7.937h94.332c4.383 0 7.937-3.553 7.937-7.937z" fill="#fff5f5"/><path d="m375.014 23.892v-15.955c0-4.383 3.554-7.937 7.937-7.937h-41.98c-4.383 0-7.937 3.554-7.937 7.937v15.955c0 4.384 3.554 7.937 7.937 7.937h41.98c-4.384 0-7.937-3.553-7.937-7.937z" fill="#eee1dd"/><path d="m466.278 185.273-204.55-172.045c-3.311-2.785-8.145-2.785-11.457 0l-204.549 172.045c-6.354 5.345-2.575 15.71 5.728 15.71h409.1c8.303-.001 12.083-10.366 5.728-15.71z" fill="#e27a66"/><path d="m95.822 185.273 185.228-155.793-19.322-16.251c-3.311-2.785-8.145-2.785-11.456 0l-204.55 172.044c-6.355 5.345-2.575 15.71 5.728 15.71h50.1c-8.303-.001-12.082-10.366-5.728-15.71z" fill="#dd544f"/><ellipse cx="256" cy="120.394" fill="#9dc6fb" rx="42.374" ry="42.374" transform="matrix(.998 -.071 .071 .998 -7.891 18.451)"/><path d="m235.26 120.394c0-19.663 13.395-36.194 31.557-40.975-3.454-.909-7.078-1.399-10.817-1.399-23.402 0-42.374 18.971-42.374 42.374 0 23.402 18.972 42.374 42.374 42.374 3.739 0 7.363-.489 10.817-1.398-18.162-4.782-31.557-21.313-31.557-40.976z" fill="#80b4fb"/><path d="m256 70.294c-27.625 0-50.1 22.475-50.1 50.1s22.475 50.1 50.1 50.1c27.626 0 50.101-22.475 50.101-50.1s-22.475-50.1-50.101-50.1zm33.768 42.374h-26.042v-26.042c12.91 2.953 23.089 13.132 26.042 26.042zm-41.495-26.042v26.042h-26.042c2.954-12.91 13.133-23.089 26.042-26.042zm-26.041 41.495h26.042v26.042c-12.91-2.954-23.089-13.133-26.042-26.042zm41.494 26.041v-26.042h26.042c-2.953 12.91-13.132 23.09-26.042 26.042z" fill="#bed8fb"/><path d="m381.793 251.515h-90.462c-2.187 0-3.96 1.773-3.96 3.96v33.459h98.382v-33.459c0-2.187-1.773-3.96-3.96-3.96z" fill="#9dc6fb"/><path d="m313.48 251.515h-22.149c-2.187 0-3.96 1.773-3.96 3.96v33.459h22.149v-33.459c0-2.187 1.773-3.96 3.96-3.96z" fill="#80b4fb"/></g></svg>